<svg xmlns="http://www.w3.org/2000/svg" width="100" height="100" viewBox="0 0 100 100">
  <circle cx="50" cy="50" r="45" fill="#006B54"/>
  <path d="M50 80c11.03 0 20-8.97 20-20S61.03 40 50 40 30 48.97 30 60s8.97 20 20 20zm0-35c6.63 0 12 5.37 12 12s-5.37 12-12 12-12-5.37-12-12 5.37-12 12-12zm-4.95 13.35l4.95-4.95 4.95 4.95-1.41 1.41L50 52.26l-3.54 3.54-1.41-1.41z" fill="#ffffff"/>
  <path d="M50 85c-22.06 0-40-17.94-40-40S27.94 5 50 5s40 17.94 40 40-17.94 40-40 40zm0-75C29.22 10 10 29.22 10 50s19.22 40 40 40 40-19.22 40-40S70.78 10 50 10zm0 70C33.46 80 20 66.54 20 50S33.46 20 50 20s30 13.46 30 30-13.46 30-30 30z" fill="#ffffff" opacity=".2"/>
</svg>
